<svg xmlns="http://www.w3.org/2000/svg" xmlns:xlink="http://www.w3.org/1999/xlink" width="1000" height="993"><defs><path id="a" d="M996.5 722.2l-.5-1.5c-.5-1.4-1.3-2.6-2.1-3.9l-.7-1c-1-1.4-2.3-2.6-3.7-3.6L717 512.5V374.8c0-4.8-1.8-9.4-5-13L518.2 143.9V85.7h22.9a19.5 19.5 0 0 0 0-39h-22.9V19.5a19.5 19.5 0 1 0-38.9 0v27.2h-22.9a19.5 19.5 0 0 0 0 39h22.9V144L285.6 361.8c-3.2 3.6-5 8.2-5 13v134.6L8 712.3a19 19 0 0 0-3.6 3.5l-.7 1a17 17 0 0 0-2.1 4l-.6 1.5c-.6 1.7-1 3.7-1 5.6v245.5C0 984.2 8.7 993 19.5 993H978c10.8 0 19.5-8.8 19.5-19.6V728c0-2-.4-3.8-1-5.7zM717 560.8l166.5 122-166.5-44v-78zm-436.3 75.9L113.8 682l166.8-124.2v78.8zM39 742.8l241.7-65.7v276.8H39V743zm280.6-91.2V382.2l179.2-201.6L678 382.2V954h-73.2V810c0-58.6-47.5-106.2-106-106.2-58.4 0-106 47.6-106 106.2v144h-73.2V651.5zm112.2 302.3V810a67.2 67.2 0 1 1 134.1 0v144H431.7zm526.9 0H716.9V679.2L958.6 743v211zM456.4 566.7h84.7c10.7 0 19.4-8.7 19.4-19.5v-131a62 62 0 0 0-61.7-62 62 62 0 0 0-61.8 62v131c0 10.8 8.7 19.5 19.4 19.5zM476 416.2a23 23 0 0 1 22.9-23 23 23 0 0 1 22.8 23v111.5H476V416.2z"/></defs><clipPath id="b"><use overflow="visible" xlink:href="#a"/></clipPath><g clip-path="url(#b)"><defs><path id="c" d="M-4303.7-1772.5H6792.4v7608.7H-4303.7z"/></defs><clipPath id="d"><use overflow="visible" xlink:href="#c"/></clipPath><path fill="#2F3031" d="M-39.6-39.7h1076.8v1072.2H-39.6z" clip-path="url(#d)"/></g></svg>