<svg xmlns="http://www.w3.org/2000/svg" xmlns:xlink="http://www.w3.org/1999/xlink" width="1000" height="897"><defs><path id="a" d="M774.4 448.5a269 269 0 0 0-268.8-268.8 19.5 19.5 0 1 0 0 39.2c126.7 0 229.7 103 229.7 229.6a19.6 19.6 0 1 0 39.1 0M505.6 678A229.9 229.9 0 0 1 276 448.5a19.6 19.6 0 0 0-39.1 0 269 269 0 0 0 268.7 268.7 19.6 19.6 0 0 0 0-39.1m0-542.3a313 313 0 0 1 312.7 312.7 19.6 19.6 0 0 0 39.1 0c0-194-157.8-351.8-351.8-351.8a19.6 19.6 0 0 0 0 39.1m0 625.3A313 313 0 0 1 193 448.5a19.6 19.6 0 0 0-39.2 0c0 194 157.9 351.7 351.8 351.7a19.6 19.6 0 0 0 0-39m0-495.2a182.6 182.6 0 0 0-182.4 182.5 182.6 182.6 0 0 0 182.4 182.4A182.6 182.6 0 0 0 688 448.5 182.6 182.6 0 0 0 505.6 266m0 325.8c-79 0-143.3-64.3-143.3-143.3 0-79 64.3-143.3 143.3-143.3 79 0 143.3 64.3 143.3 143.3 0 79-64.3 143.3-143.3 143.3m0-245.4a102.1 102.1 0 0 0 0 204.1 102.1 102.1 0 0 0 0-204m0 164.9a63 63 0 1 1 .2-126 63 63 0 0 1-.2 126m493.5 197.5c-6.2-45.5-38.5-64.2-66.7-66.6-8-.7-15.9-.1-23.3 1.5a446.8 446.8 0 0 0 45-195.3A449 449 0 0 0 505.6 0 445.3 445.3 0 0 0 342 31c-18-14.6-39.5-22-59.6-23.7-35.9-3-69.6 9.9-90.7 32.6-21-22.7-54.9-35.6-90.7-32.6-42 3.5-90.2 31.6-99.6 100C-8.7 180 39.6 240.9 89 282.9a445 445 0 0 0-31.8 165.6A449 449 0 0 0 505.6 897a447.8 447.8 0 0 0 281.5-99.5 286.2 286.2 0 0 0 81.8 62 19.5 19.5 0 0 0 17 0c5.2-2.4 125.3-61.9 113.2-150.6m-959-596.3c7.6-55.7 47.3-65 64-66.3l7-.3c29 0 55 15.3 61.8 37.3a19.6 19.6 0 0 0 37.4 0c7.5-23.8 37-39.7 68.8-37 10 .8 28 4.5 42.6 19l1.4 1.9a75 75 0 0 1 17.2 31.5l.3 1.2c1.1 4 2 8.2 2.6 12.7 13.2 96.4-116.6 174-151.6 193.1l-4.6-2.6-1.8-1-4.7-2.7-2-1.2-5.4-3.2a178.5 178.5 0 0 1-9.3-5.8l-.8-.5a498.2 498.2 0 0 1-28-19.2l-.3-.3-10-7.7-.2-.1c-45.3-35.9-92.7-88.7-84.4-148.8m465.5 745.2a409.8 409.8 0 0 1-384.4-550c28.7 20.4 53 33.2 60 36.7l.4.1.4.3 1 .5a20.4 20.4 0 0 0 8.6 2c3 0 5.9-.7 8.6-2 8.2-4 200.8-99.3 181.8-238.1-2.4-17.4-7.3-32-14-44.5a409.8 409.8 0 0 1 547 385.6 409 409 0 0 1-52.7 201 78.2 78.2 0 0 0-39.8-7c-.8 0-1.6.2-2.3.3l-1.9.3c-3.6.5-7.2 1.3-10.8 2.3l-2.2.5c-.8.2-1.4.6-2.2.9a68.6 68.6 0 0 0-19.4 10.7c-1.4 1-2.7 2.1-4 3.3-1.5 1.3-2.9 2.9-4.3 4.4a73.5 73.5 0 0 0-9.6 13l-2.5 5.2a84.9 84.9 0 0 0-7.6 25.6c-.6 4.5-.8 8.8-.8 13v1.5c.1 4.5.6 9 1.3 13.3v.4c1.7 9.7 4.9 19 9 27.8-73 60-164.6 93-259.6 93m371.8-38c-20.9-11.6-53.2-34.3-70.9-61.5a82 82 0 0 1-10.8-24.5c-.5-2.1-1-4.3-1.2-6.5l-.4-3.5a50.7 50.7 0 0 1 3-20c.1-.8.5-1.4.7-2 1-2.5 2.3-4.8 3.7-6.9l.9-1.4c1.8-2.3 3.8-4.4 6.1-6l.7-.5c2.4-1.7 5.1-3.1 8.2-4 12.7-4.2 28.5-.9 36.8 7.7l.7.6a17 17 0 0 1 3.8 6.6 19.6 19.6 0 0 0 37.4 0c3.3-10.6 17.9-18 33-16.7 10 .8 27.6 6.3 31.2 33 6.3 45.7-51.5 88-82.9 105.6"/></defs><clipPath id="b"><use overflow="visible" xlink:href="#a"/></clipPath><g clip-path="url(#b)"><defs><path id="c" d="M-2687.5-4835.9H8250v7500H-2687.5z"/></defs><clipPath id="d"><use overflow="visible" xlink:href="#c"/></clipPath><path fill="#2F3031" d="M-39.1-39.1H1039V936H-39.1z" clip-path="url(#d)"/></g></svg>