<svg xmlns="http://www.w3.org/2000/svg" xmlns:xlink="http://www.w3.org/1999/xlink" width="738.3" height="1000"><defs><path id="a" d="M270.3 694c7.3-8.3 13.7-17.3 19-26.7 1.4-2.4 2.5-5 3.7-7.5 1.2-2.3 2.5-4.6 3.5-7a154 154 0 0 0 11.6-79.2v-.5l-8.8-88.4-25.1-252.3c-1-10-9.5-17.7-19.6-17.7h-200A19.7 19.7 0 0 0 35 232.4L1.1 572.8A154.8 154.8 0 0 0 135 744.6V959H48a19.6 19.6 0 0 0 0 39.2h218a19.6 19.6 0 1 0 0-39.2h-91.8V744.7a154.6 154.6 0 0 0 96-50.7zm-33.4-440L249 377H60l12.2-123h164.6zM68.2 668A115.7 115.7 0 0 1 40 577.2l16.1-160.9h197l12.6 126.8 3.4 34.5A115.4 115.4 0 0 1 68.2 668zm627 291h-91.9V744.6a154.5 154.5 0 0 0 106.4-63.5c1.4-2 2.5-4 3.8-6 1.6-2.6 3.4-5.1 5-7.8a154 154 0 0 0 18.8-93.8v-.4l-15.6-155.6-18.4-185.1c-1-10-9.5-17.7-19.5-17.7H483.7c-10 0-18.5 7.7-19.5 17.7L448 394.7l-17.7 178.1a154.4 154.4 0 0 0 133.9 171.8V959H477a19.6 19.6 0 0 0 0 39.2h218a19.6 19.6 0 1 0 0-39.2zM666 254l12.3 123H489.2l12.2-123H666zM497.4 668a115.7 115.7 0 0 1-28.2-90.8l16-160.9h197l11 110 5 51.3A115.4 115.4 0 0 1 497.5 668zm-2-598.8c-6.4-47-39.8-66.4-69-68.9a78.4 78.4 0 0 0-57.2 17.5A78.3 78.3 0 0 0 311.8.3c-29 2.4-62.5 21.8-69 68.9-12.5 92 112.5 153.9 117.8 156.5a19.5 19.5 0 0 0 17.1 0c5.4-2.6 130.3-64.5 117.7-156.5M369.3 185.8c-24.7-14-94.7-59-87.6-111.3 4-28.4 22.6-34.2 33.4-35.1l3.7-.2c14.8 0 28.3 7.6 31.6 18.2a19.6 19.6 0 0 0 37.5 0c3.6-11.5 19.2-19.4 35.3-18 10.8.9 29.5 6.7 33.4 35 6.6 48.4-54.4 93-87.3 111.4"/></defs><clipPath id="b"><use overflow="visible" xlink:href="#a"/></clipPath><g clip-path="url(#b)"><defs><path id="c" d="M-6023.6-1781.9H5131.2v7649H-6023.6z"/></defs><clipPath id="d"><use overflow="visible" xlink:href="#c"/></clipPath><path fill="#2F3031" d="M-39.8-39.8h818v1077.9h-818z" clip-path="url(#d)"/></g></svg>