<?xml version="1.0" encoding="utf-8"?>
<!-- Generator: Adobe Illustrator 16.0.0, SVG Export Plug-In . SVG Version: 6.00 Build 0)  -->
<!DOCTYPE svg PUBLIC "-//W3C//DTD SVG 1.1//EN" "http://www.w3.org/Graphics/SVG/1.1/DTD/svg11.dtd">
<svg version="1.1"
	 id="svg1936" xmlns:svg="http://www.w3.org/2000/svg" xmlns:rdf="http://www.w3.org/1999/02/22-rdf-syntax-ns#" xmlns:sodipodi="http://sodipodi.sourceforge.net/DTD/sodipodi-0.dtd" xmlns:dc="http://purl.org/dc/elements/1.1/" xmlns:inkscape="http://www.inkscape.org/namespaces/inkscape" xmlns:cc="http://creativecommons.org/ns#" sodipodi:docname="Amazon logo without .com.svg" inkscape:version="0.91 r13725"
	 xmlns="http://www.w3.org/2000/svg" xmlns:xlink="http://www.w3.org/1999/xlink" x="0px" y="0px" width="602.279px"
	 height="181.5px" viewBox="0 0 602.279 181.5" enable-background="new 0 0 602.279 181.5" xml:space="preserve">
<sodipodi:namedview  fit-margin-left="0" id="namedview3353" inkscape:cy="90.74961" inkscape:zoom="1.241148" inkscape:cx="478.75888" gridtolerance="10" pagecolor="#ffffff" bordercolor="#666666" guidetolerance="10" objecttolerance="10" borderopacity="1" fit-margin-top="0" showgrid="false" inkscape:current-layer="g1967" inkscape:pageopacity="0" inkscape:window-maximized="1" inkscape:window-y="-8" inkscape:window-x="-8" fit-margin-right="0" fit-margin-bottom="0" inkscape:window-height="705" inkscape:pageshadow="2" inkscape:window-width="1366">
	</sodipodi:namedview>
<g id="layer1" transform="translate(144.53434,-649.87719)">
	<g id="g1967" transform="translate(7.081691,7.081144)">
		<path id="path8" inkscape:connector-curvature="0" fill="#FFFFFF" d="M222.027,784.734c-35,25.798-85.729,39.562-129.406,39.562
			c-61.243,0-116.377-22.652-158.088-60.325c-3.277-2.962-0.341-7,3.592-4.692c45.014,26.189,100.673,41.947,158.166,41.947
			c38.775,0,81.43-8.023,120.65-24.671C222.865,774.038,227.82,780.434,222.027,784.734"/>
		<path id="path10" inkscape:connector-curvature="0" fill="#FFFFFF" d="M236.577,768.087c-4.457-5.715-29.573-2.701-40.847-1.363
			c-3.435,0.42-3.958-2.569-0.865-4.719c20.004-14.079,52.827-10.016,56.655-5.297c3.827,4.746-0.996,37.648-19.794,53.352
			c-2.884,2.412-5.637,1.127-4.353-2.07C231.596,797.45,241.06,773.828,236.577,768.087"/>
		<path id="path12" inkscape:connector-curvature="0" fill="#FFFFFF" d="M196.518,662.616v-13.685c0-2.071,1.573-3.46,3.46-3.46
			h61.27c1.966,0,3.539,1.416,3.539,3.46v11.719c-0.026,1.966-1.678,4.536-4.614,8.599l-31.749,45.329
			c11.798-0.289,24.251,1.468,34.947,7.498c2.412,1.363,3.067,3.356,3.251,5.322v14.603c0,1.992-2.202,4.326-4.509,3.119
			c-18.851-9.883-43.888-10.958-64.729,0.105c-2.124,1.154-4.353-1.153-4.353-3.146v-13.868c0-2.229,0.026-6.03,2.255-9.412
			l36.782-52.749h-32.011C198.09,666.05,196.518,664.661,196.518,662.616"/>
		<path id="path14" inkscape:connector-curvature="0" fill="#FFFFFF" d="M-26.981,748.005h-18.64
			c-1.783-0.131-3.198-1.469-3.33-3.172v-95.666c0-1.914,1.6-3.434,3.592-3.434h17.382c1.809,0.078,3.251,1.468,3.382,3.198v12.505
			h0.341c4.536-12.086,13.056-17.723,24.539-17.723c11.667,0,18.955,5.637,24.198,17.723c4.509-12.086,14.76-17.723,25.745-17.723
			c7.812,0,16.359,3.225,21.576,10.46c5.899,8.049,4.693,19.741,4.693,29.992l-0.026,60.377c0,1.914-1.599,3.461-3.591,3.461H54.265
			c-1.861-0.131-3.355-1.626-3.355-3.461V693.84c0-4.037,0.367-14.104-0.524-17.932c-1.39-6.423-5.558-8.232-10.959-8.232
			c-4.509,0-9.228,3.015-11.142,7.839c-1.914,4.824-1.73,12.898-1.73,18.325v50.704c0,1.914-1.6,3.461-3.592,3.461H4.348
			c-1.888-0.131-3.355-1.626-3.355-3.461L0.966,693.84c0-10.67,1.756-26.374-11.483-26.374c-13.397,0-12.873,15.311-12.873,26.374
			v50.704C-23.389,746.458-24.989,748.005-26.981,748.005"/>
		<path id="path16" inkscape:connector-curvature="0" fill="#FFFFFF" d="M317.534,643.714c27.659,0,42.629,23.752,42.629,53.955
			c0,29.179-16.543,52.329-42.629,52.329c-27.16,0-41.947-23.752-41.947-53.351C275.587,666.863,290.558,643.714,317.534,643.714
			 M317.692,663.245c-13.737,0-14.603,18.719-14.603,30.385c0,11.693-0.184,36.651,14.445,36.651
			c14.445,0,15.127-20.134,15.127-32.404c0-8.075-0.341-17.723-2.779-25.378C327.785,665.84,323.616,663.245,317.692,663.245"/>
		<path id="path18" inkscape:connector-curvature="0" fill="#FFFFFF" d="M396.027,748.005h-18.562
			c-1.861-0.131-3.355-1.625-3.355-3.461l-0.026-95.691c0.157-1.756,1.704-3.12,3.592-3.12h17.276
			c1.626,0.078,2.963,1.18,3.33,2.674v14.629h0.341c5.217-13.082,12.531-19.322,25.404-19.322c8.362,0,16.517,3.015,21.76,11.273
			c4.876,7.655,4.876,20.528,4.876,29.782v60.22c-0.209,1.678-1.756,3.016-3.592,3.016h-18.692c-1.704-0.131-3.12-1.39-3.304-3.016
			v-51.961c0-10.46,1.206-25.771-11.666-25.771c-4.535,0-8.704,3.041-10.775,7.655c-2.621,5.846-2.962,11.667-2.962,18.116v51.516
			C399.646,746.458,398.02,748.005,396.027,748.005"/>
		<path id="path28" inkscape:connector-curvature="0" fill="#FFFFFF" d="M145.685,698.344c-6.852,0.542-7.162-0.031-15.333,2.802
			c-2.809,1.428-4.829,1.9-7.091,5.503c-3.805,6.061-4.592,19.891,2.986,22.604c21.592,8.293,23.276-27.207,21.428-30.981
			L145.685,698.344 M166.473,747.743c-1.232,1.101-3.015,1.18-4.404,0.445c-6.188-5.139-7.314-7.524-10.696-12.428
			c-10.225,10.436-17.487,13.555-30.727,13.555c-15.704,0-27.895-9.674-27.895-29.048c0-15.127,8.18-25.43,19.873-30.464
			c10.12-4.457,24.25-5.243,35.052-6.476v-2.412c0-4.431,0.341-9.674-2.281-13.501c-2.255-3.435-6.607-4.85-10.46-4.85
			c-7.105,0-13.423,3.644-14.97,11.194c-0.314,1.678-1.546,3.33-3.25,3.408l-18.063-1.94c-1.521-0.341-3.225-1.573-2.779-3.906
			c4.143-21.917,23.962-28.524,41.685-28.524c9.071,0,20.921,2.412,28.078,9.281c9.071,8.468,8.206,19.768,8.206,32.063v29.048
			c0,8.73,3.618,12.558,7.026,17.277c1.18,1.678,1.441,3.696-0.079,4.955c-3.802,3.172-10.565,9.07-14.288,12.374L166.473,747.743"
			/>
		<path id="path30" inkscape:connector-curvature="0" fill="#FFFFFF" d="M-114.443,701.081c-5.783,2.089-12.533,9.339-8.927,22.668
			c4.144,7.796,9.651,6.573,13.526,6.323c6.848-3.461,7.011-4.496,10.762-10.519c2.38-9.304,2.235-12.008,2.39-21.283l-6.164,0.226
			 M-77.894,747.743c-1.232,1.101-3.015,1.18-4.404,0.445c-6.187-5.139-7.288-7.524-10.696-12.428
			c-10.225,10.436-17.46,13.555-30.727,13.555c-15.677,0-27.895-9.674-27.895-29.048c0-15.127,8.206-25.43,19.873-30.464
			c10.12-4.457,24.25-5.243,35.052-6.476v-2.412c0-4.431,0.341-9.674-2.255-13.501c-2.281-3.435-6.633-4.85-10.46-4.85
			c-7.104,0-13.449,3.644-14.996,11.194c-0.314,1.678-1.546,3.33-3.225,3.408l-18.089-1.94c-1.521-0.341-3.199-1.573-2.779-3.906
			c4.168-21.917,23.962-28.524,41.685-28.524c9.071,0,20.921,2.412,28.078,9.281c9.071,8.468,8.206,19.768,8.206,32.063v29.048
			c0,8.73,3.618,12.558,7.026,17.277c1.206,1.678,1.468,3.696-0.052,4.955c-3.802,3.172-10.565,9.07-14.288,12.374L-77.894,747.743"
			/>
	</g>
</g>
<path fill="#FFFFFF" d="M61.454,62.514"/>
</svg>
